PathFileType	4	(x/y/z)	TRC_MarkerData\Passive\Passive_Pref0005.trc
DataRate	CameraRate	NumFrames	NumMarkers	Units	OrigDataRate	OrigDataStartFrame	OrigNumFrames
240	240	8	50	mm	240	267	304
Frame#	Time	R_AC			L_AC			HEAD			STERN			C7			L_IC			R_IC			L_ASIS			R_ASIS			L_GT			R_GT			L_PSIS			R_PSIS			SACRAL			L_LAT_KNEE			L_MED_KNEE			R_LAT_KNEE			R_MED_KNEE			L_LAT_ANK			L_MED_ANK			R_LAT_ANK			R_MED_ANK			L_THIGH_PROX_POST			L_THIGH_PROX_ANT			L_THIGH_DIST_ANT			L_THIGH_DIST_POST			R_THIGH_PROX_POST			R_THIGH_PROX_ANT			R_THIGH_DIST_ANT			R_THIGH_DIST_POST			L_SHANK_PROX_POST			L_SHANK_PROX_ANT			L_SHANK_DIST_ANT			L_SHANK_DIST_POST			R_SHANK_PROX_POST			R_SHANK_PROX_ANT			R_SHANK_DIST_ANT			R_SHANK_DIST_POST			L_HEEL_LAT			L_HEEL_SUP			L_HEEL_MED			R_HEEL_LAT			R_HEEL_SUP			R_HEEL_MED			L_1ST_MET			L_5TH_MET			L_TOE			R_1ST_MET			R_5TH_MET			R_TOE			
		X1	Y1	Z1	X2	Y2	Z2	X3	Y3	Z3	X4	Y4	Z4	X5	Y5	Z5	X6	Y6	Z6	X7	Y7	Z7	X8	Y8	Z8	X9	Y9	Z9	X10	Y10	Z10	X11	Y11	Z11	X12	Y12	Z12	X13	Y13	Z13	X14	Y14	Z14	X15	Y15	Z15	X16	Y16	Z16	X17	Y17	Z17	X18	Y18	Z18	X19	Y19	Z19	X20	Y20	Z20	X21	Y21	Z21	X22	Y22	Z22	X23	Y23	Z23	X24	Y24	Z24	X25	Y25	Z25	X26	Y26	Z26	X27	Y27	Z27	X28	Y28	Z28	X29	Y29	Z29	X30	Y30	Z30	X31	Y31	Z31	X32	Y32	Z32	X33	Y33	Z33	X34	Y34	Z34	X35	Y35	Z35	X36	Y36	Z36	X37	Y37	Z37	X38	Y38	Z38	X39	Y39	Z39	X40	Y40	Z40	X41	Y41	Z41	X42	Y42	Z42	X43	Y43	Z43	X44	Y44	Z44	X45	Y45	Z45	X46	Y46	Z46	X47	Y47	Z47	X48	Y48	Z48	X49	Y49	Z49	X50	Y50	Z50	

267	1.112	548.69	1536.8	493.49	541.11	1559.6	102.63	666.11	1843.8	313.73	646.47	1507.2	298.74	505.59	1591.2	302.28	549.65	1100.4	134.67	543.13	1121.2	474.35	618.76	1045.2	176.38	605.49	1040	446.98	550.74	963.43	114.18	507.42	974.53	485.84	409.39	1058.2	246.02	410.8	1068.4	354.25	395.46	1040.3	300.9	725.85	590.78	152.71	731.12	594.68	288.9	434.95	561.7	439.26	460.32	557.84	314.98	740.22	137.1	147.66	731.66	135.41	224.58	311.78	118.72	366.67	348.51	135.26	271.88	587.23	810.3	126.52	649.73	830.04	128.71	681.68	760.26	138.69	615.77	742.18	137.32	457.85	807.38	474.64	523.83	795.62	484.34	506.34	723.99	471.13	440.11	735.91	458.51	739.31	538.39	158.43	778.23	559.11	174.18	786.19	509.53	178.76	742.48	484.23	161.49	324.34	422.04	414.65	390.38	417.37	440.47	385.18	344.19	426.33	319.88	346.55	402.39	692.79	52.021	140.81	674.34	72.449	176.22	685.85	41.086	206.22	241.77	77.408	333.32	242.55	104.06	297.7	258.47	74.438	268.08	902.59	90.709	255.28	896.99	88.736	148.35	953.3	111.89	236.86	484.94	41.683	298.48	435.25	35.67	403.35	523.32	42.375	354.82
268	1.1162	553.77	1535.9	493.29	546.5	1558.6	102.37	671.34	1842.8	313.51	651.66	1506.2	298.58	510.84	1590.3	302.03	554.51	1099.4	134.49	548.04	1120.4	474.22	623.66	1044.2	176.24	610.37	1039.1	446.88	555.57	962.3	114.14	512.07	973.99	485.82	414.31	1057.2	245.91	415.75	1067.7	354.1	400.29	1039.6	300.8	731.29	590.36	153.58	736.73	594.4	289.78	436.6	561.88	439.22	461.8	557.82	314.86	754.54	137.04	148.6	746.19	135.23	225.57	312.1	119.14	366.52	348.93	135.58	271.78	592.03	809.08	126.89	654.6	828.8	128.9	686.26	758.96	139.39	620.77	740.85	137.87	461.34	807.39	474.66	527.29	795.17	484.14	509.3	723.68	470.9	443.13	736.05	458.48	745.77	538.24	159.29	784.3	559.72	174.96	793.23	510.3	179.54	750	484.15	162.35	325.3	422.55	414.47	391.27	417.72	440.43	385.89	344.54	426.32	320.67	347.06	402.25	708.75	51.048	141.85	689.92	71.115	177.26	702.12	39.977	207.25	241.98	78.053	333.13	242.85	104.7	297.52	258.72	75.034	267.9	917.93	93.803	255.93	912.22	91.756	149	968.2	115.99	237.41	485.05	41.621	298.51	435.25	35.684	403.33	523.42	42.246	354.86
269	1.1204	558.88	1534.9	493.07	551.88	1557.7	102.11	676.58	1841.9	313.27	656.86	1505.2	298.41	516.1	1589.4	301.78	559.37	1098.3	134.3	552.97	1119.5	474.09	628.57	1043.2	176.08	615.28	1038.2	446.77	560.42	961.12	114.1	516.75	973.42	485.8	419.24	1056.3	245.81	420.71	1066.9	353.96	405.13	1038.8	300.71	736.7	589.88	154.44	742.33	594.08	290.64	438.28	562.04	439.18	463.31	557.8	314.73	768.68	137.09	149.55	760.55	135.18	226.6	312.43	119.56	366.37	349.35	135.91	271.68	596.85	807.84	127.26	659.48	827.52	129.1	690.75	757.63	140.11	625.8	739.48	138.4	464.87	807.38	474.68	530.79	794.7	483.94	512.29	723.35	470.67	446.18	736.18	458.45	752.19	538.05	160.13	790.32	560.27	175.72	800.19	511.03	180.3	757.45	484.05	163.2	326.28	423.06	414.29	392.18	418.07	440.39	386.62	344.89	426.31	321.48	347.59	402.11	724.51	50.235	142.92	705.33	69.938	178.34	718.2	39.037	208.31	242.19	78.705	332.94	243.16	105.35	297.33	258.97	75.64	267.71	933.03	96.983	256.59	927.19	94.851	149.67	982.84	120.15	237.96	485.16	41.562	298.55	435.26	35.7	403.31	523.52	42.121	354.9
270	1.1245	564.02	1533.9	492.85	557.26	1556.7	101.84	681.84	1840.9	313.03	662.07	1504.2	298.22	521.38	1588.5	301.53	564.22	1097.3	134.11	557.92	1118.6	473.94	633.48	1042.1	175.91	620.21	1037.3	446.65	565.29	959.93	114.06	521.47	972.83	485.77	424.18	1055.3	245.72	425.69	1066.2	353.82	410	1038	300.63	742.09	589.36	155.26	747.92	593.73	291.47	439.99	562.21	439.14	464.86	557.77	314.6	782.62	137.25	150.51	774.74	135.25	227.65	312.76	119.99	366.22	349.78	136.24	271.58	601.67	806.57	127.64	664.38	826.21	129.29	695.17	756.26	140.84	630.87	738.09	138.92	468.44	807.35	474.7	534.32	794.2	483.74	515.32	723	470.44	449.28	736.29	458.41	758.56	537.83	160.95	796.29	560.77	176.44	807.09	511.72	181.04	764.84	483.93	164.03	327.3	423.59	414.11	393.12	418.42	440.35	387.37	345.25	426.3	322.31	348.12	401.96	740.07	49.57	144.01	720.55	68.907	179.45	734.09	38.257	209.4	242.41	79.366	332.74	243.47	106.01	297.13	259.23	76.256	267.52	947.87	100.24	257.25	941.9	98.005	150.34	997.21	124.35	238.52	485.27	41.505	298.59	435.27	35.718	403.28	523.62	41.999	354.94
271	1.1287	569.2	1532.9	492.62	562.64	1555.8	101.57	687.1	1839.9	312.78	667.31	1503.1	298.02	526.66	1587.5	301.27	569.09	1096.2	133.9	562.91	1117.7	473.79	638.41	1041	175.73	625.17	1036.4	446.51	570.19	958.7	114.01	526.21	972.22	485.74	429.13	1054.3	245.63	430.69	1065.4	353.68	414.89	1037.2	300.55	747.47	588.78	156.05	753.5	593.35	292.27	441.74	562.36	439.09	466.45	557.74	314.47	796.37	137.49	151.49	788.74	135.43	228.73	313.1	120.42	366.07	350.22	136.58	271.48	606.5	805.28	128.01	669.3	824.88	129.49	699.55	754.88	141.57	635.98	736.66	139.42	472.05	807.29	474.71	537.88	793.69	483.55	518.38	722.64	470.21	452.41	736.38	458.37	764.89	537.58	161.74	802.22	561.21	177.14	813.92	512.36	181.75	772.17	483.8	164.84	328.34	424.11	413.92	394.09	418.77	440.3	388.14	345.61	426.29	323.16	348.65	401.82	755.4	49.041	145.13	735.57	68.015	180.57	749.75	37.626	210.51	242.63	80.035	332.54	243.78	106.68	296.92	259.49	76.883	267.32	962.44	103.55	257.93	956.34	101.2	151.02	1011.3	128.58	239.09	485.38	41.451	298.63	435.28	35.736	403.25	523.71	41.88	354.99
272	1.1329	574.42	1531.8	492.38	568.02	1554.7	101.28	692.38	1838.8	312.51	672.55	1502	297.79	531.96	1586.5	301.01	573.97	1095	133.69	567.92	1116.8	473.64	643.35	1039.9	175.54	630.16	1035.4	446.37	575.13	957.46	113.95	530.98	971.58	485.71	434.1	1053.2	245.55	435.71	1064.6	353.55	419.8	1036.4	300.47	752.84	588.16	156.81	759.06	592.94	293.03	443.53	562.51	439.05	468.1	557.7	314.34	809.9	137.81	152.47	802.53	135.7	229.83	313.44	120.86	365.92	350.67	136.92	271.38	611.35	803.96	128.38	674.24	823.54	129.68	703.92	753.47	142.29	641.14	735.22	139.9	475.71	807.22	474.73	541.48	793.16	483.36	521.48	722.26	469.98	455.58	736.46	458.33	771.19	537.29	162.5	808.11	561.6	177.82	820.7	512.97	182.44	779.44	483.65	165.63	329.43	424.65	413.73	395.09	419.12	440.26	388.94	345.97	426.28	324.04	349.2	401.68	770.51	48.638	146.26	750.37	67.249	181.72	765.19	37.132	211.65	242.86	80.714	332.34	244.09	107.37	296.7	259.76	77.522	267.12	976.74	106.9	258.62	970.51	104.42	151.73	1025.1	132.82	239.67	485.49	41.4	298.67	435.28	35.756	403.22	523.81	41.764	355.03
273	1.1371	579.68	1530.7	492.13	573.39	1553.7	100.99	697.67	1837.7	312.23	677.82	1500.9	297.54	537.28	1585.4	300.75	578.86	1093.9	133.48	572.96	1115.8	473.48	648.3	1038.7	175.34	635.17	1034.4	446.22	580.1	956.19	113.88	535.78	970.93	485.67	439.08	1052.1	245.47	440.75	1063.7	353.41	424.74	1035.5	300.39	758.21	587.5	157.52	764.62	592.5	293.75	445.37	562.65	439	469.81	557.65	314.21	823.22	138.21	153.46	816.11	136.06	230.94	313.78	121.31	365.76	351.13	137.27	271.28	616.22	802.63	128.75	679.21	822.18	129.88	708.3	752.06	143	646.34	733.77	140.36	479.4	807.13	474.74	545.12	792.61	483.18	524.62	721.87	469.76	458.8	736.51	458.29	777.45	536.96	163.22	813.98	561.93	178.46	827.42	513.53	183.1	786.65	483.48	166.39	330.56	425.19	413.54	396.13	419.47	440.21	389.77	346.33	426.27	324.96	349.75	401.53	785.37	48.349	147.41	764.95	66.601	182.88	780.39	36.763	212.8	243.09	81.405	332.13	244.42	108.06	296.49	260.04	78.174	266.91	990.75	110.27	259.34	984.39	107.66	152.45	1038.7	137.05	240.28	485.6	41.351	298.71	435.3	35.777	403.19	523.9	41.65	355.07
274	1.1413	584.98	1529.5	491.87	578.77	1552.6	100.68	702.97	1836.6	311.94	683.11	1499.7	297.27	542.62	1584.4	300.48	583.77	1092.7	133.26	578.04	1114.9	473.31	653.27	1037.6	175.13	640.21	1033.4	446.07	585.12	954.91	113.8	540.6	970.25	485.63	444.09	1051	245.39	445.81	1062.9	353.27	429.7	1034.7	300.31	763.59	586.79	158.2	770.16	592.03	294.43	447.27	562.78	438.95	471.59	557.59	314.08	836.32	138.67	154.45	829.46	136.49	232.06	314.13	121.77	365.61	351.6	137.63	271.17	621.12	801.28	129.11	684.2	820.81	130.08	712.73	750.64	143.68	651.57	732.31	140.79	483.14	807.01	474.74	548.79	792.04	483	527.81	721.45	469.56	462.06	736.55	458.25	783.7	536.6	163.92	819.82	562.19	179.08	834.09	514.04	183.74	793.81	483.28	167.12	331.74	425.73	413.35	397.23	419.81	440.16	390.64	346.68	426.26	325.92	350.3	401.39	799.99	48.16	148.56	779.28	66.06	184.05	795.32	36.508	213.95	243.33	82.107	331.92	244.74	108.78	296.26	260.32	78.838	266.71	1004.5	113.66	260.08	998	110.88	153.19	1051.9	141.25	240.91	485.7	41.304	298.74	435.31	35.798	403.16	523.99	41.538	355.12
